#!OML:ASF C:\ViconDB\ViconDB\414\Spring2016\041811\Spring2016.ASF
:FULLY-SPECIFIED
:DEGREES
521
root 13.912 18.6388 -16.2616 895.667 -11.2306 180.471
lowerback 8.44938 -11.2101 -4.99412
upperback 1.74244 -15.4845 1.83558
thorax -0.985678 -7.82963 5.75355
lowerneck -18.7146 15.2331 4.12925
upperneck 32.0973 21.9895 3.2811
head 14.064 10.8815 4.53963
rclavicle -4.5969e-015 -6.95746e-015
rhumerus -64.3806 -21.9356 -67.573
rradius 39.7058
rwrist 32.4076
rhand -32.1775 -11.0637
rfingers 7.12502
rthumb -5.42011 -40.9743
lclavicle -4.5969e-015 -6.95746e-015
lhumerus 5.11705 -53.1681 100.029
lradius 39.6391
lwrist -28.1566
lhand -31.1317 12.2409
lfingers 7.12502
lthumb -4.41034 42.175
rfemur -15.0301 -193.021 3.66038
rtibia 34.7811
rfoot -37.9783 -64.3991
rtoes 5.33884
lfemur -11.5247 20.8449 -11.8241
ltibia 31.6706
lfoot -20.3575 27.9239
ltoes -2.00406
522
root 13.8683 18.6492 -16.2463 895.849 -10.333 180.483
lowerback 8.21734 -11.2306 -4.912
upperback 1.69015 -15.4941 1.94618
thorax -0.904021 -7.83739 5.77694
lowerneck -18.9906 15.2949 3.96441
upperneck 32.2138 22.0903 3.31874
head 14.1416 10.8911 4.62731
rclavicle -1.95057e-013 2.10712e-014
rhumerus -64.4216 -22.0511 -68.2131
rradius 40.5181
rwrist 32.0721
rhand -35.3683 -11.9121
rfingers 7.12502
rthumb -8.50021 -41.721
lclavicle -1.95057e-013 2.10712e-014
lhumerus 3.8195 -55.1843 101.712
lradius 40.6713
lwrist -27.6541
lhand -30.8366 11.6538
lfingers 7.12502
lthumb -4.12537 41.5936
rfemur -14.7831 -193.349 3.86717
rtibia 34.9916
rfoot -37.9284 -64.2986
rtoes 4.13351
lfemur -11.4528 21.4105 -11.9192
ltibia 31.4965
lfoot -20.5921 28.2136
ltoes -1.94442
523
root 13.835 18.6574 -16.222 896.073 -9.655 180.43
lowerback 8.03518 -11.2657 -4.90337
upperback 1.61997 -15.5277 1.97907
thorax -0.86756 -7.85206 5.77362
lowerneck -19.0754 15.3187 4.03474
upperneck 32.2092 22.1014 3.22679
head 14.1811 10.8788 4.59788
rclavicle 1.27744e-013 -2.66371e-014
rhumerus -64.4773 -22.1264 -68.9323
rradius 41.1826
rwrist 31.4901
rhand -37.226 -12.4354
rfingers 7.12502
rthumb -10.2927 -42.1636
lclavicle 1.27744e-013 -2.66371e-014
lhumerus 2.19012 -57.383 103.48
lradius 41.8218
lwrist -27.0802
lhand -30.4871 11.1984
lfingers 7.12502
lthumb -3.78782 41.1444
rfemur -14.5879 -193.96 4.03477
rtibia 35.2068
rfoot -37.428 -64.237
rtoes 3.31569
lfemur -11.4877 21.8418 -12.112
ltibia 31.2896
lfoot -20.8874 28.4758
ltoes -1.63556
524
root 13.8064 18.6659 -16.1966 896.172 -9.0739 180.18
lowerback 8.1304 -11.2803 -5.19214
upperback 1.51933 -15.5736 2.04422
thorax -0.92457 -7.87085 6.0113
lowerneck -19.3445 15.2549 3.73535
upperneck 32.2807 22.0494 3.27669
head 14.2185 10.8164 4.67348
rclavicle 6.78601e-014 -1.19271e-015
rhumerus -64.5426 -22.1589 -69.4594
rradius 41.83
rwrist 30.8409
rhand -38.7906 -12.9496
rfingers 7.12502
rthumb -11.8018 -42.5971
lclavicle 6.78601e-014 -1.19271e-015
lhumerus 0.402193 -59.4164 105.545
lradius 42.9273
lwrist -26.7026
lhand -30.0503 10.7792
lfingers 7.12502
lthumb -3.36607 40.7323
rfemur -14.6467 -194.676 3.93649
rtibia 35.4849
rfoot -36.744 -63.977
rtoes 2.26271
lfemur -11.2984 22.0645 -12.4695
ltibia 30.935
lfoot -21.0276 28.811
ltoes -1.46509
525
root 13.7835 18.6776 -16.1774 896.223 -8.33949 180.021
lowerback 7.95209 -11.1956 -5.4765
upperback 1.58608 -15.4804 2.08154
thorax -0.686672 -7.83883 6.13073
lowerneck -19.5726 15.2113 3.56717
upperneck 32.1925 21.9878 3.2189
head 14.2126 10.7497 4.6749
rclavicle -6.79595e-014 1.23246e-014
rhumerus -64.4214 -22.2124 -70.1202
rradius 42.1757
rwrist 30.5169
rhand -39.934 -13.6926
rfingers 7.12502
rthumb -12.9041 -43.2736
lclavicle -6.79595e-014 1.23246e-014
lhumerus -1.49366 -61.4346 107.589
lradius 44.2773
lwrist -26.3282
lhand -29.3063 10.1162
lfingers 7.12502
lthumb -2.64757 40.0795
rfemur -14.7509 -195.215 3.96987
rtibia 35.7987
rfoot -35.7794 -63.4968
rtoes 0.182071
lfemur -10.9799 22.3996 -12.6521
ltibia 30.5029
lfoot -21.1504 29.115
ltoes -1.30607
526
root 13.769 18.6896 -16.1695 896.044 -8.31333 179.685
lowerback 8.07514 -11.2872 -5.92127
upperback 1.59694 -15.6455 1.97849
thorax -0.631141 -7.92372 6.26892
lowerneck -19.4302 15.1733 3.64195
upperneck 32.0555 21.9136 3.10693
head 14.152 10.7173 4.58628
rclavicle 6.30644e-014 -1.55052e-014
rhumerus -64.481 -22.1282 -70.8154
rradius 42.3588
rwrist 30.0843
rhand -40.5507 -14.2706
rfingers 7.12502
rthumb -13.4986 -43.8131
lclavicle 6.30644e-014 -1.55052e-014
lhumerus -4.43537 -63.211 110.44
lradius 45.7977
lwrist -26.1352
lhand -28.4907 9.34049
lfingers 7.12502
lthumb -1.8598 39.3121
rfemur -15.5203 -196.266 3.61185
rtibia 36.1487
rfoot -34.0028 -62.8068
rtoes -0.525226
lfemur -10.4016 22.1693 -12.9579
ltibia 29.975
lfoot -21.1502 29.3282
ltoes -1.19111
527
root 13.7401 18.7064 -16.1613 896.152 -7.65776 179.843
lowerback 7.58789 -11.2106 -5.61828
upperback 1.66152 -15.4966 2.06987
thorax -0.374856 -7.86272 6.09197
lowerneck -19.5045 15.149 3.61705
upperneck 31.8906 21.8605 2.98032
head 14.1117 10.6684 4.52642
rclavicle 2.8379e-013 3.18055e-015
rhumerus -64.2145 -21.9348 -71.5936
rradius 42.4186
rwrist 29.0959
rhand -40.9305 -14.2966
rfingers 7.12502
rthumb -13.8647 -43.8145
lclavicle 2.8379e-013 3.18055e-015
lhumerus -7.30643 -64.6248 113.324
lradius 47.3857
lwrist -26.3803
lhand -27.4777 8.30294
lfingers 7.12502
lthumb -0.881469 38.2809
rfemur -15.7834 -197.603 3.96304
rtibia 36.5127
rfoot -33.3664 -62.3704
rtoes 0.260062
lfemur -10.0729 22.4753 -12.8588
ltibia 29.4181
lfoot -21.2904 29.6025
ltoes -1.13344
528
root 13.7223 18.7236 -16.1408 896.189 -7.24375 179.862
lowerback 7.44591 -11.2028 -5.58439
upperback 1.65074 -15.4744 2.06401
thorax -0.3229 -7.85193 6.03893
lowerneck -19.6021 15.0953 3.58312
upperneck 31.8923 21.7585 3.00717
head 14.1245 10.6189 4.53196
rclavicle 1.40417e-013 -1.51076e-014
rhumerus -64.1366 -21.572 -72.4782
rradius 42.2848
rwrist 29.1969
rhand -41.3139 -15.067
rfingers 7.12502
rthumb -14.2341 -44.5592
lclavicle 1.40417e-013 -1.51076e-014
lhumerus -10.8743 -65.9319 116.507
lradius 49.2973
lwrist -26.2641
lhand -26.3272 7.47985
lfingers 7.12502
lthumb 0.229735 37.4595
rfemur -16.2225 -198.8 4.14707
rtibia 36.8864
rfoot -32.6651 -61.8624
rtoes 1.54121
lfemur -9.77806 22.4253 -12.9094
ltibia 28.8594
lfoot -21.4492 30.0074
ltoes -1.01065
529
root 13.7167 18.7418 -16.121 896.202 -6.89542 179.903
lowerback 7.21128 -11.0793 -5.5996
upperback 1.72876 -15.3047 2.13763
thorax -0.113804 -7.78073 6.05384
lowerneck -19.8342 14.9396 3.09697
upperneck 31.8058 21.51 3.32658
head 14.0212 10.5032 4.66699
rclavicle 2.81032e-014 -1.31198e-014
rhumerus -63.6746 -21.3286 -73.2401
rradius 41.8946
rwrist 28.7443
rhand -41.004 -14.8916
rfingers 7.12502
rthumb -13.9355 -44.4046
lclavicle 2.81032e-014 -1.31198e-014
lhumerus -14.4636 -67.1248 119.867
lradius 51.2833
lwrist -26.381
lhand -24.9367 6.09187
lfingers 7.12502
lthumb 1.57271 36.0658
rfemur -16.8034 -199.779 4.31658
rtibia 37.2996
rfoot -32.2505 -61.2317
rtoes 1.5012
lfemur -9.45957 22.3701 -12.9275
ltibia 28.2716
lfoot -21.511 30.3963
ltoes -0.847031
530
root 13.7094 18.7586 -16.1002 896.166 -6.62218 180.155
lowerback 7.02425 -10.9982 -5.28308
upperback 1.76235 -15.1696 2.22547
thorax -0.0532723 -7.71738 5.94204
lowerneck -19.7918 14.8406 2.99429
upperneck 31.638 21.3936 3.21977
head 13.9438 10.4337 4.60077
rclavicle -2.51463e-014 -1.51076e-014
rhumerus -63.3137 -21.03 -73.9307
rradius 41.3739
rwrist 28.6949
rhand -40.3656 -14.6415
rfingers 7.12502
rthumb -13.3202 -44.1958
lclavicle -2.51463e-014 -1.51076e-014
lhumerus -18.41 -68.189 123.534
lradius 53.2805
lwrist -25.6317
lhand -23.3251 4.48348
lfingers 7.12502
lthumb 3.12913 34.4403
rfemur -17.5333 -200.65 4.63385
rtibia 37.7215
rfoot -31.4969 -60.7629
rtoes 1.64302
lfemur -9.12139 22.3035 -12.6969
ltibia 27.6547
lfoot -21.4952 30.7424
ltoes -0.687205
